<svg width="106" height="100" viewBox="0 0 106 100" fill="none" xmlns="http://www.w3.org/2000/svg">
<path d="M0 49.5504C0 57.9044 7.80028 65.7033 20.0981 70.0992C17.6423 83.0286 19.6579 93.4496 26.3904 97.5103C33.3107 101.684 43.6201 98.7949 53.4053 89.8497C62.9435 98.4337 72.5836 101.812 79.3097 97.7398C86.2232 93.5542 88.3262 82.4263 85.8025 69.0933C98.6113 64.6644 105.776 58.0144 105.776 49.5504C105.776 41.39 97.9614 34.3302 85.8295 29.9624C88.5463 16.0784 86.2443 5.91019 79.2332 1.68185C72.4737 -2.39453 62.7217 1.15845 53.0432 9.96729C42.9744 0.617401 33.3186 -2.23724 26.3143 2.00343C19.5614 6.09141 17.6344 16.7018 20.0981 29.8706C8.21553 34.2034 0 41.4226 0 49.5504Z" fill="white"/>
<path d="M83.2587 34.2996C82.2842 33.9488 81.2744 33.6169 80.2347 33.303C80.4056 32.5737 80.5624 31.8537 80.7019 31.146C82.991 19.5254 81.4943 10.1638 76.3835 7.08156C71.483 4.12609 63.4684 7.20764 55.3741 14.5745C54.5958 15.2829 53.8152 16.0329 53.035 16.819C52.5152 16.2989 51.9962 15.7963 51.4785 15.3156C42.9954 7.43846 34.4925 4.11892 29.3868 7.21009C24.4909 10.1741 23.041 18.9749 25.1015 29.9879C25.3005 31.0516 25.5331 32.1379 25.7961 33.2424C24.5927 33.5996 23.4309 33.9805 22.3193 34.3857C12.3738 38.0119 6.02222 43.6952 6.02222 49.5902C6.02222 55.6786 12.8407 61.7854 23.1997 65.4883C24.0172 65.7805 24.8654 66.0568 25.7396 66.3191C25.4558 67.5136 25.209 68.6842 25.0018 69.8259C23.0371 80.6477 24.5715 89.2406 29.4543 92.1859C34.4979 95.2276 42.9623 92.1011 51.2046 84.5663C51.8561 83.9707 52.5098 83.3391 53.1648 82.677C54.0137 83.532 54.8613 84.3411 55.7044 85.1C63.688 92.2849 71.5731 95.1862 76.4514 92.2326C81.4899 89.1822 83.1274 79.9514 81.0015 68.7206C80.8392 67.8628 80.6502 66.9865 80.438 66.0947C81.0325 65.9109 81.616 65.7212 82.185 65.5239C92.9542 61.7924 99.9609 55.7599 99.9609 49.5902C99.9609 43.6738 93.4045 37.9523 83.2587 34.2996Z" fill="#53C1DE"/>
<path d="M80.923 61.5405C80.4094 61.7183 79.8823 61.8902 79.3452 62.0569C78.1564 58.1207 76.5518 53.9352 74.5883 49.6109C76.462 45.3895 78.0045 41.2575 79.1601 37.3469C80.1211 37.6378 81.0538 37.9445 81.9525 38.2682C90.6454 41.3978 95.948 46.025 95.948 49.5904C95.948 53.3882 90.2214 58.3183 80.923 61.5405ZM77.0648 69.5358C78.0049 74.502 78.1392 78.9919 77.5165 82.5019C76.957 85.6558 75.8318 87.7586 74.4406 88.6008C71.4802 90.3929 65.1493 88.0634 58.3216 81.9189C57.5389 81.2145 56.7505 80.4624 55.9596 79.6664C58.6065 76.6389 61.252 73.1193 63.8339 69.2104C68.3751 68.789 72.6655 68.1 76.5563 67.1594C76.748 67.9678 76.9182 68.7607 77.0648 69.5358ZM38.0481 88.2911C35.1557 89.3594 32.8521 89.39 31.4596 88.5503C28.4964 86.7629 27.2646 79.8636 28.9449 70.6088C29.1374 69.549 29.3664 68.4602 29.6305 67.3474C33.4786 68.2373 37.7376 68.8776 42.2897 69.2636C44.889 73.0885 47.6108 76.6042 50.3538 79.6826C49.7545 80.2877 49.1575 80.8637 48.5639 81.4065C44.9193 84.7383 41.2669 87.1022 38.0481 88.2911ZM24.4976 61.5172C19.9171 59.8799 16.1343 57.7519 13.5414 55.4298C11.2115 53.3431 10.0352 51.2714 10.0352 49.5904C10.0352 46.0131 15.1349 41.4503 23.6403 38.3489C24.6724 37.9726 25.7527 37.618 26.8738 37.2849C28.0493 41.2838 29.5913 45.4647 31.4522 49.6925C29.5672 53.9831 28.0033 58.2307 26.8163 62.2765C26.0171 62.0362 25.2427 61.7834 24.4976 61.5172ZM29.0399 29.1821C27.2745 19.7465 28.4469 12.6286 31.3974 10.8425C34.5401 8.93977 41.4895 11.6527 48.8139 18.4542C49.2821 18.889 49.7521 19.344 50.2235 19.8147C47.4941 22.8797 44.7972 26.369 42.221 30.1714C37.803 30.5996 33.5739 31.2875 29.6856 32.2088C29.4412 31.1804 29.2246 30.17 29.0399 29.1821ZM69.5608 39.6461C68.6313 37.967 67.677 36.3276 66.7042 34.733C69.7014 35.1293 72.5731 35.6553 75.2698 36.299C74.4602 39.0126 73.4511 41.8498 72.2632 44.7584C71.4111 43.0666 70.5099 41.3607 69.5608 39.6461ZM53.0365 22.8141C54.8875 24.9113 56.7412 27.2528 58.5644 29.7933C56.7271 29.7025 54.8671 29.6553 52.9916 29.6553C51.1339 29.6553 49.2876 29.7015 47.4617 29.7907C49.2868 27.2738 51.1565 24.9354 53.0365 22.8141ZM36.4063 39.6752C35.4778 41.359 34.5932 43.0556 33.7545 44.7553C32.5859 41.8568 31.5861 39.0066 30.7695 36.2545C33.4497 35.6273 36.3078 35.1144 39.286 34.7257C38.2994 36.335 37.3373 37.9864 36.4063 39.6748V39.6752ZM39.3718 64.7546C36.2948 64.3956 33.3937 63.9091 30.7141 63.2991C31.5438 60.4979 32.5657 57.5868 33.759 54.626C34.5999 56.3245 35.488 58.0218 36.4222 59.7092H36.4223C37.3739 61.4284 38.3598 63.1124 39.3718 64.7546ZM53.1475 76.6627C51.2455 74.5165 49.3483 72.1425 47.4955 69.5888C49.2941 69.6626 51.1279 69.7004 52.9916 69.7004C54.9064 69.7004 56.7992 69.6553 58.6622 69.5685C56.833 72.1682 54.986 74.5459 53.1475 76.6627ZM72.3015 54.4751C73.5571 57.4679 74.6155 60.3638 75.4559 63.1173C72.7323 63.7671 69.7915 64.2905 66.6931 64.6794C67.6683 63.0632 68.6309 61.3957 69.5768 59.6804C70.5338 57.945 71.4424 56.207 72.3015 54.4751ZM66.1007 57.5837C64.6323 60.2464 63.1247 62.7883 61.5943 65.1877C58.8067 65.3962 55.9268 65.5035 52.9916 65.5035C50.0683 65.5035 47.2248 65.4086 44.4865 65.2227C42.8944 62.7918 41.354 60.2424 39.895 57.6066H39.8953C38.4401 54.978 37.1007 52.3271 35.8871 49.6912C37.1004 47.049 38.4362 44.3952 39.8831 41.7713L39.8827 41.7718C41.3335 39.1409 42.8603 36.6039 44.4377 34.1883C47.2314 33.9674 50.0962 33.8522 52.9915 33.8522H52.9916C55.8999 33.8522 58.7684 33.9683 61.5613 34.1911C63.1147 36.5891 64.6311 39.1178 66.0875 41.7491C67.5605 44.4099 68.9135 47.0461 70.1372 49.6315C68.9172 52.2614 67.5672 54.9241 66.1007 57.5837ZM74.3791 10.7177C77.5248 12.6148 78.7481 20.2661 76.7717 30.2992C76.6456 30.9394 76.5037 31.5915 76.3495 32.2523C72.4522 31.3119 68.2201 30.612 63.7892 30.1773C61.208 26.3331 58.5331 22.8384 55.8483 19.8128C56.5701 19.0866 57.2909 18.3941 58.0088 17.7406C64.944 11.4287 71.4258 8.93662 74.3791 10.7177Z" fill="white"/>
<path d="M52.9929 40.8179C57.6256 40.8179 61.3813 44.7454 61.3813 49.5905C61.3813 54.4355 57.6256 58.3632 52.9929 58.3632C48.3602 58.3632 44.6045 54.4355 44.6045 49.5905C44.6045 44.7454 48.3602 40.8179 52.9929 40.8179Z" fill="#53C1DE"/>
</svg>
