<svg width="97" height="100" viewBox="0 0 97 100" fill="none" xmlns="http://www.w3.org/2000/svg">
<path d="M0 0H96.2234V100H0V0Z" fill="#F7DF1E"/>
<path d="M25.3009 83.567L32.6646 78.9358C34.0852 81.5534 35.3775 83.7682 38.4773 83.7682C41.4486 83.7682 43.3219 82.5602 43.3219 77.8618V45.9094H52.3645V77.9947C52.3645 87.728 46.8745 92.1583 38.8649 92.1583C31.6312 92.1583 27.4322 88.2648 25.3008 83.5662" fill="black"/>
<path d="M57.2759 82.5604L64.6387 78.13C66.5769 81.4196 69.0959 83.8359 73.5525 83.8359C77.2992 83.8359 79.6885 81.8891 79.6885 79.204C79.6885 75.9819 77.2342 74.8407 73.1002 72.9618L70.8402 71.9542C64.3161 69.0683 59.9883 65.4435 59.9883 57.791C59.9883 50.7428 65.1555 45.3724 73.2297 45.3724C78.9784 45.3724 83.1122 47.4535 86.083 52.8908L79.0425 57.5894C77.4923 54.7032 75.8134 53.5623 73.2299 53.5623C70.5816 53.5623 68.9021 55.3075 68.9021 57.5894C68.9021 60.4088 70.5816 61.5502 74.4567 63.2956L76.7171 64.3024C84.4036 67.7261 88.7313 71.2162 88.7313 79.0697C88.7313 87.5281 82.3369 92.1594 73.7464 92.1594C65.3496 92.1594 59.9239 87.9978 57.276 82.5604" fill="black"/>
</svg>
