<?xml version="1.0" encoding="utf-8"?>
<svg xmlns="http://www.w3.org/2000/svg" xmlns:xlink="http://www.w3.org/1999/xlink" version= "1.1" width="1920px" height="1300px" viewBox="-600 63 1920 1300">
<g id="layer1">
<g style="fill:rgb(64,190,174); fill-opacity:1.0; stroke-linejoin: miter">
<path d="M-600.0009,61.42947C-600.4172,61.42947,-600.81635,61.59483,-601.1107,61.88917C-601.4051,62.183514,-601.57043,62.582733,-601.57043,62.998997L-601.56946,1362.9999C-601.56946,1363.8667,-600.86676,1364.5695,-599.99994,1364.5695L1320.0009,1364.5704C1320.4171,1364.5704,1320.8164,1364.405,1321.1107,1364.1107C1321.405,1363.8164,1321.5704,1363.4171,1321.5704,1363.0009L1321.5695,62.999996C1321.5695,62.13317,1320.8667,61.43047,1319.9999,61.43047L-600.0009,61.42947 Z"/>
</g>
<g style="fill:rgb(0,0,0); fill-opacity:0.29803923; stroke-linejoin: miter">
<path d="M1135.5826,1272.9999L1128.7333,1274.0063Q1080.0375,1277.0477,843.7646,1278.8713Q605.8571,1280.6935,283.45972,1280.349Q-24.226604,1279.8677,-208.70143,1277.5321Q-393.0274,1275.1804,-358.1886,1271.9934Q-309.49307,1268.9519,-73.22002,1267.1283Q164.68767,1265.3062,487.0851,1265.6506Q794.7708,1266.132,979.2461,1268.4675Q1038.3538,1269.2225,1076.6195,1270.1128L1108.7809,1271.0282Q1135.2845,1271.9729,1135.5826,1272.9999"/>
</g>
<g style="fill:rgb(255,255,255); fill-opacity:0.99607843; stroke-linejoin: miter">
<path d="M-126.84767,1209.3978L256.39047,1209.3978L639.6264,1209.3995Q639.6264,1213.8802,639.6264,1218.361Q256.39047,1218.3612,-126.84767,1218.3615Q-126.84767,1213.8807,-126.84767,1209.3978"/>
</g>
<g style="fill:rgb(217,226,231); fill-opacity:1.0; stroke-linejoin: miter">
<path d="M-124.42107,1216.9077L258.816,1216.9077L642.0529,1216.909L642.0529,1225.8689L-124.42107,1225.8727L-124.42107,1216.9077"/>
</g>
<g style="fill:rgb(255,255,255); fill-opacity:0.99607843; stroke-linejoin: miter">
<path d="M-125.9223,1225.166L257.31583,1225.168L640.55286,1225.1677L640.55286,1234.1292L-125.9223,1234.133L-125.9223,1225.166"/>
</g>
<g style="fill:rgb(217,226,231); fill-opacity:1.0; stroke-linejoin: miter">
<path d="M-125.9223,1230.422L257.31583,1230.4255L640.55286,1230.4253L640.55286,1239.3867L-125.9223,1239.3889L-125.9223,1230.422"/>
</g>
<g style="fill:rgb(255,255,255); fill-opacity:0.99607843; stroke-linejoin: miter">
<path d="M-125.9223,1238.684L257.31583,1238.6859L640.55286,1238.6857L640.55286,1247.6471L-125.9223,1247.6492L-125.9223,1238.684"/>
</g>
<g style="fill:rgb(217,226,231); fill-opacity:1.0; stroke-linejoin: miter">
<path d="M-123.49858,1246.9442L259.73953,1246.9459L642.97656,1246.9457L642.9766,1255.9071L-123.49858,1255.9115L-123.49858,1246.9442"/>
</g>
<g style="fill:rgb(255,255,255); fill-opacity:0.99607843; stroke-linejoin: miter">
<path d="M-124.24802,1253.7032L258.98907,1253.7032L642.2269,1253.705L642.2269,1262.6661L-124.24802,1262.6705L-124.24802,1253.7032"/>
</g>
<g style="fill:rgb(217,226,231); fill-opacity:1.0; stroke-linejoin: miter">
<path d="M-126.34596,1260.6163L256.89218,1260.618L640.1292,1260.6178L640.1292,1269.5775L-126.34596,1269.5814L-126.34596,1260.6163"/>
</g>
<g style="fill:rgb(255,255,255); fill-opacity:0.99607843; stroke-linejoin: miter">
<path d="M-155.39882,1148.973L227.83923,1148.973L611.0752,1148.9747Q611.0752,1153.4554,611.0752,1157.9362Q227.83923,1157.9364,-155.39882,1157.9366Q-155.39882,1153.4559,-155.39882,1148.973"/>
</g>
<g style="fill:rgb(217,226,231); fill-opacity:1.0; stroke-linejoin: miter">
<path d="M-152.97224,1156.4828L230.26479,1156.4828L613.5017,1156.4843L613.5017,1165.444L-152.97224,1165.4479L-152.97224,1156.4828"/>
</g>
<g style="fill:rgb(255,255,255); fill-opacity:0.99607843; stroke-linejoin: miter">
<path d="M-154.47345,1164.7412L228.76463,1164.743L612.0016,1164.7428L612.0016,1173.7043L-154.47345,1173.7081L-154.47345,1164.7412"/>
</g>
<g style="fill:rgb(217,226,231); fill-opacity:1.0; stroke-linejoin: miter">
<path d="M-154.47345,1169.9971L228.76463,1170.0007L612.0016,1170.0005L612.0016,1178.9619L-154.47345,1178.9641L-154.47345,1169.9971"/>
</g>
<g style="fill:rgb(255,255,255); fill-opacity:0.99607843; stroke-linejoin: miter">
<path d="M-154.47345,1178.259L228.76463,1178.261L612.0016,1178.2607L612.0016,1187.2222L-154.47345,1187.2244L-154.47345,1178.259"/>
</g>
<g style="fill:rgb(217,226,231); fill-opacity:1.0; stroke-linejoin: miter">
<path d="M-152.04976,1186.5193L231.1883,1186.521L614.42535,1186.5208L614.42535,1195.4822L-152.04976,1195.4866L-152.04976,1186.5193"/>
</g>
<g style="fill:rgb(255,255,255); fill-opacity:0.99607843; stroke-linejoin: miter">
<path d="M-152.7992,1193.2784L230.43784,1193.2784L613.6756,1193.2802L613.67566,1202.2415L-152.79922,1202.2458L-152.7992,1193.2784"/>
</g>
<g style="fill:rgb(217,226,231); fill-opacity:1.0; stroke-linejoin: miter">
<path d="M-154.89714,1200.1917L228.34097,1200.1934L611.578,1200.1931L611.578,1209.1528L-154.89714,1209.1567L-154.89714,1200.1917"/>
</g>
<g style="fill:rgb(255,255,255); fill-opacity:0.99607843; stroke-linejoin: miter">
<path d="M-147.62953,1094.8032L235.60867,1094.8032L618.8447,1094.8049Q618.8447,1099.2856,618.8447,1103.7664Q235.60867,1103.7666,-147.62953,1103.7668Q-147.62953,1099.2861,-147.62953,1094.8032"/>
</g>
<g style="fill:rgb(217,226,231); fill-opacity:1.0; stroke-linejoin: miter">
<path d="M-145.20296,1102.313L238.03423,1102.313L621.27124,1102.3145L621.27124,1111.2742L-145.20296,1111.2781L-145.20296,1102.313"/>
</g>
<g style="fill:rgb(255,255,255); fill-opacity:0.99607843; stroke-linejoin: miter">
<path d="M-146.70416,1110.5713L236.53407,1110.5732L619.7712,1110.573L619.7712,1119.5344L-146.70416,1119.5383L-146.70416,1110.5713"/>
</g>
<g style="fill:rgb(217,226,231); fill-opacity:1.0; stroke-linejoin: miter">
<path d="M-146.70416,1115.8273L236.53407,1115.8309L619.7712,1115.8307L619.7712,1124.7921L-146.70416,1124.7943L-146.70416,1115.8273"/>
</g>
<g style="fill:rgb(255,255,255); fill-opacity:0.99607843; stroke-linejoin: miter">
<path d="M-146.70416,1124.0892L236.53407,1124.0912L619.7712,1124.091L619.7712,1133.0524L-146.70416,1133.0546L-146.70416,1124.0892"/>
</g>
<g style="fill:rgb(217,226,231); fill-opacity:1.0; stroke-linejoin: miter">
<path d="M-144.28047,1132.3495L238.95773,1132.3512L622.1949,1132.351L622.1949,1141.3124L-144.28047,1141.3168L-144.28047,1132.3495"/>
</g>
<g style="fill:rgb(255,255,255); fill-opacity:0.99607843; stroke-linejoin: miter">
<path d="M-145.0299,1139.1086L238.20728,1139.1086L621.4451,1139.1104L621.4451,1148.0715L-145.02992,1148.0759L-145.0299,1139.1086"/>
</g>
<g style="fill:rgb(217,226,231); fill-opacity:1.0; stroke-linejoin: miter">
<path d="M-147.12784,1146.0217L236.11037,1146.0233L619.3475,1146.0231L619.3475,1154.9829L-147.12784,1154.9867L-147.12784,1146.0217"/>
</g>
<g style="fill:rgb(255,255,255); fill-opacity:0.99607843; stroke-linejoin: miter">
<path d="M-176.18077,1034.3787L207.05748,1034.3787L590.29364,1034.3804Q590.29364,1038.861,590.29364,1043.3418Q207.05748,1043.342,-176.18077,1043.3423Q-176.18077,1038.8615,-176.18077,1034.3787"/>
</g>
<g style="fill:rgb(217,226,231); fill-opacity:1.0; stroke-linejoin: miter">
<path d="M-173.7542,1041.8884L209.48303,1041.8884L592.72015,1041.8899L592.72015,1050.8495L-173.75415,1050.8534L-173.7542,1041.8884"/>
</g>
<g style="fill:rgb(255,255,255); fill-opacity:0.99607843; stroke-linejoin: miter">
<path d="M-175.25536,1050.1466L207.98285,1050.1486L591.22003,1050.1483L591.22003,1059.1097L-175.25536,1059.1136L-175.25536,1050.1466"/>
</g>
<g style="fill:rgb(217,226,231); fill-opacity:1.0; stroke-linejoin: miter">
<path d="M-175.25536,1055.4026L207.98285,1055.4062L591.22003,1055.406L591.22003,1064.3674L-175.25536,1064.3696L-175.25536,1055.4026"/>
</g>
<g style="fill:rgb(255,255,255); fill-opacity:0.99607843; stroke-linejoin: miter">
<path d="M-175.25536,1063.6646L207.98285,1063.6665L591.22003,1063.6663L591.22003,1072.6277L-175.25536,1072.6299L-175.25536,1063.6646"/>
</g>
<g style="fill:rgb(217,226,231); fill-opacity:1.0; stroke-linejoin: miter">
<path d="M-172.83167,1071.9248L210.40651,1071.9265L593.64374,1071.9263L593.64374,1080.8877L-172.83167,1080.8921L-172.83167,1071.9248"/>
</g>
<g style="fill:rgb(255,255,255); fill-opacity:0.99607843; stroke-linejoin: miter">
<path d="M-173.5811,1078.6838L209.65604,1078.6838L592.89404,1078.6855L592.89404,1087.6467L-173.5811,1087.6511L-173.5811,1078.6838"/>
</g>
<g style="fill:rgb(217,226,231); fill-opacity:1.0; stroke-linejoin: miter">
<path d="M-175.67902,1085.5969L207.55916,1085.5986L590.7963,1085.5984L590.7963,1094.5581L-175.67902,1094.562L-175.67902,1085.5969"/>
</g>
<g style="fill:rgb(255,255,255); fill-opacity:1.0; stroke-linejoin: miter">
<path d="M156.71408,284.85648L514.87854,284.85696L873.0426,284.85757Q873.04236,777.27844,873.0424,1269.6975Q514.87805,1269.6985,156.71414,1269.6997Q156.71411,777.27844,156.71408,284.85648"/>
</g>
<g style="fill:rgb(132,140,147); fill-opacity:1.0; stroke-linejoin: miter">
<path d="M201.99478,985.8525L214.12393,985.85297L226.25229,985.85406Q226.2523,996.96405,226.2523,1008.07465Q214.12395,1008.07513,201.9948,1008.07513Q201.9948,996.96405,201.99478,985.8525 Z"/>
</g>
<g style="fill:rgb(132,140,147); fill-opacity:1.0; stroke-linejoin: miter">
<path d="M201.9948,1031.7515L226.2523,1031.752L226.25227,1053.9724L201.99477,1053.9735L201.9948,1031.7515 Z"/>
</g>
<g style="fill:rgb(132,140,147); fill-opacity:1.0; stroke-linejoin: miter">
<path d="M201.99477,1077.6498L214.12392,1077.6525L226.25227,1077.6498Q226.25227,1088.7614,226.25229,1099.8715Q214.12392,1099.8715,201.99478,1099.8724Q201.99477,1088.7614,201.99477,1077.6498 Z"/>
</g>
<g style="fill:rgb(132,140,147); fill-opacity:1.0; stroke-linejoin: miter">
<path d="M201.99478,1123.5483L226.25229,1123.5503L226.25227,1145.7688L201.99477,1145.7693L201.99478,1123.5483 Z"/>
</g>
<g style="fill:rgb(187,223,255); fill-opacity:1.0; stroke-linejoin: miter">
<path d="M250.6199,981.9128L438.6086,981.9117L626.59705,981.9128Q626.59705,997.27795,626.59705,1012.6458Q438.6086,1012.6469,250.6199,1012.6469Q250.6199,997.27905,250.6199,981.9128 Z"/>
</g>
<g style="fill:rgb(187,223,255); fill-opacity:1.0; stroke-linejoin: miter">
<path d="M250.6199,1028.3035L398.85123,1028.305L547.0826,1028.304Q547.0826,1043.6698,547.0825,1059.0375Q398.8512,1059.0386,250.61987,1059.0396Q250.6199,1043.6709,250.6199,1028.3035 Z"/>
</g>
<g style="fill:rgb(187,223,255); fill-opacity:1.0; stroke-linejoin: miter">
<path d="M250.61987,1074.6951L442.27567,1074.6971L633.9309,1074.6967Q633.9309,1090.0624,633.9309,1105.4298Q442.27567,1105.4298,250.61987,1105.4298Q250.61987,1090.0624,250.61987,1074.6951 Z"/>
</g>
<g style="fill:rgb(187,223,255); fill-opacity:1.0; stroke-linejoin: miter">
<path d="M250.61987,1121.0879L498.04633,1121.0896L498.04633,1151.8204L250.61987,1151.8231L250.61987,1121.0879 Z"/>
</g>
<g style="fill:rgb(132,140,147); fill-opacity:1.0; stroke-linejoin: miter">
<path d="M201.99475,804.3846L214.12364,804.3855L226.25226,804.3861Q226.25226,815.4966,226.25224,826.6067Q214.12363,826.6072,201.99474,826.6072Q201.99475,815.4966,201.99475,804.3846 Z"/>
</g>
<g style="fill:rgb(132,140,147); fill-opacity:1.0; stroke-linejoin: miter">
<path d="M201.99475,850.28357L226.25226,850.28455L226.25226,872.50574L201.99475,872.5062L201.99475,850.28357 Z"/>
</g>
<g style="fill:rgb(132,140,147); fill-opacity:1.0; stroke-linejoin: miter">
<path d="M201.99478,896.1826L214.12369,896.1841L226.25229,896.1826Q226.25229,907.2937,226.25229,918.4037Q214.12369,918.4037,201.99478,918.4042Q201.99478,907.2937,201.99478,896.1826 Z"/>
</g>
<g style="fill:rgb(132,140,147); fill-opacity:1.0; stroke-linejoin: miter">
<path d="M201.99478,942.0805L226.25229,942.0821L226.25204,964.3022L201.99478,964.3027L201.99478,942.0805 Z"/>
</g>
<g style="fill:rgb(187,223,255); fill-opacity:1.0; stroke-linejoin: miter">
<path d="M247.40073,800.4447L435.38995,800.4437L623.37836,800.4442Q623.37836,815.8116,623.37836,831.1779Q435.38995,831.1784,247.40071,831.1795Q247.40073,815.8121,247.40073,800.4447 Z"/>
</g>
<g style="fill:rgb(187,223,255); fill-opacity:1.0; stroke-linejoin: miter">
<path d="M247.40073,846.8355L395.63226,846.8371L543.8634,846.836Q543.8634,862.2029,543.8634,877.5702Q395.63226,877.5708,247.40073,877.5713Q247.40073,862.2029,247.40073,846.8355 Z"/>
</g>
<g style="fill:rgb(187,223,255); fill-opacity:1.0; stroke-linejoin: miter">
<path d="M247.40074,893.22736L439.0571,893.22943L630.71234,893.22833Q630.71234,908.5947,630.71234,923.9626Q439.0571,923.9626,247.40074,923.9626Q247.40074,908.5947,247.40074,893.22736 Z"/>
</g>
<g style="fill:rgb(187,223,255); fill-opacity:1.0; stroke-linejoin: miter">
<path d="M247.40074,939.6201L494.82773,939.6217L494.82773,970.3533L247.40076,970.35535L247.40074,939.6201 Z"/>
</g>
<g style="fill:rgb(212,235,255); fill-opacity:0.44705883; stroke-linejoin: miter">
<path d="M208.68935,577.68884L492.3888,577.68933L776.08826,577.6898Q776.0882,667.64984,776.0882,757.61Q492.38882,757.6105,208.68936,757.61096Q208.68936,667.6499,208.68935,577.68884"/>
</g>
<g style="fill:rgb(212,235,255); fill-opacity:0.99607843; stroke-linejoin: miter">
<path d="M397.33786,454.1105L560.20386,454.11108L723.06976,454.11166Q723.06976,492.9486,723.06976,531.7855Q560.20386,531.78613,397.33786,531.78674Q397.33786,492.94864,397.33786,454.1105"/>
</g>
<g style="fill:rgb(191,201,210); fill-opacity:0.78431374; stroke-linejoin: miter">
<path d="M723.4731,309.1813L850.13,309.1826L850.13,333.26447L723.4731,333.2657L723.4731,309.1813"/>
</g>
<g style="fill:rgb(191,201,210); fill-opacity:0.78431374; stroke-linejoin: miter">
<path d="M763.9206,341.5086L850.13,341.5096L850.13,365.59177L763.9206,365.59277L763.9206,341.5086"/>
</g>
<g style="fill:rgb(191,201,210); fill-opacity:0.99607843; stroke-linejoin: miter">
<path d="M219.94754,1172.3562L508.4137,1172.3569L796.8797,1172.3578Q796.8798,1203.5663,796.8798,1234.7748Q508.41376,1234.7755,219.94757,1234.7762Q219.94757,1203.5663,219.94754,1172.3562"/>
</g>
<g style="fill:rgb(191,201,210); fill-opacity:0.6117647; stroke-linejoin: miter">
<path d="M672.7026,801.2376L849.2769,801.2405L849.27704,1144.2607L672.7027,1144.2637L672.7026,801.2376"/>
</g>
<g>
<g style="fill:rgb(130,140,150); fill-opacity:1.0; stroke-linejoin: miter">
<path d="M450.10477,470.5595L456.83615,470.5595Q462.68365,470.55957,465.53937,472.8033Q468.4631,475.11508,468.4631,479.46674Q468.4631,481.7785,467.7152,483.51233Q466.96725,485.21216,465.4034,486.572Q463.70355,488.03387,461.66376,488.6798Q459.8516,489.24612,457.4263,489.3408Q456.9729,489.3585,456.49805,489.35968L456.49615,489.35974L450.1048,489.35977L450.10477,470.5595 Z M500.10193,483.8636Q500.3926,483.85226,500.69226,483.85226L500.62427,483.9203Q502.80005,483.9203,504.4659,484.6342Q506.13174,485.34814,507.32162,486.64Q508.2396,487.6599,508.9875,489.80173Q509.63345,491.67148,509.63348,493.67734L490.45917,493.67734Q491.0711,489.1558,493.68884,486.43607Q496.00616,484.02347,500.10193,483.8636 Z M666.99286,483.86356Q667.2835,483.85217,667.5832,483.85217L667.5152,483.92017Q669.691,483.92023,671.3568,484.6341Q673.0227,485.34805,674.2126,486.63992Q675.13055,487.65982,675.8785,489.80164Q676.5245,491.67145,676.5244,493.67725L657.35016,493.67725Q657.9621,489.1557,660.5798,486.43594Q662.89703,484.02338,666.99286,483.86356 Z M438.40982,465.15405L438.40982,468.21375Q438.40985,469.23367,439.42972,469.47168Q440.0417,469.60764,443.47537,470.28757L443.4754,509.96185L439.42975,510.81177Q438.40985,511.04977,438.40985,512.06964L438.40985,515.0614L443.40738,515.06134L450.1728,515.06134L455.17032,515.0614L455.17032,512.06964Q455.17032,511.62766,454.83038,511.2537Q454.52435,510.91376,454.04846,510.81177Q453.5045,510.67575,450.1728,509.96182L450.17276,494.2553L454.62637,494.2553Q456.0882,494.25537,456.70016,494.66333Q457.41412,495.13925,457.95807,495.85315L470.91092,513.6675Q471.7268,515.12933,473.56268,515.12933L475.77246,515.12933L479.5461,515.12933L480.80402,515.1293L480.80402,512.06964Q480.80405,511.04987,479.75043,510.8118L479.7524,510.8117L479.81808,510.8117Q479.47815,510.7098,475.90848,510.13177L465.1314,495.3432Q464.2135,494.0173,462.8876,493.26938Q465.4034,492.72546,468.05518,491.2636Q470.29895,490.03967,471.89682,488.1019Q473.49466,486.16403,474.31058,483.92032Q475.16052,481.54053,475.16052,479.05872Q475.16052,475.86304,474.10657,473.2793Q473.0867,470.7975,470.77487,468.8937Q468.4971,467.02386,465.06342,466.10602Q461.45975,465.15405,456.83615,465.15408L443.40738,465.15408L438.40982,465.15405 Z M499.77338,479.34708Q496.416,479.47812,493.75687,480.65662Q490.62912,482.05038,488.52133,484.3622Q486.5495,486.53802,485.25763,489.9377Q484.06775,493.09937,484.06775,496.73703Q484.06772,501.29266,485.32565,504.8283Q486.6175,508.49994,488.79327,510.74374Q491.17313,513.2255,494.1648,514.4494Q497.15656,515.67334,500.93024,515.67334Q501.27817,515.67334,501.6432,515.65906Q503.0615,515.6037,504.73788,515.33325Q506.19977,515.09534,508.51157,514.3474Q509.66745,513.9734,511.91125,512.6135Q513.71313,511.5257,514.69904,510.2678L512.96515,507.956Q512.5572,507.3441,511.77527,507.34402Q511.7561,507.3441,511.73645,507.34482Q511.23212,507.36453,510.3814,507.88803Q509.49747,508.43195,508.30756,509.00992Q506.57373,509.82578,505.38385,510.19977Q504.11597,510.58563,502.2447,510.65872Q501.8079,510.67575,501.33823,510.67575Q499.06042,510.6758,496.8846,509.82584Q494.87878,509.04385,493.3829,507.3441Q491.75107,505.47424,491.03708,503.29843Q490.1872,500.68073,490.1872,497.45108L490.18927,497.451L513.5771,497.45102Q513.6346,497.451,513.69,497.44882Q514.48535,497.41782,514.835,496.94104Q515.10693,496.56705,515.10693,495.0032Q515.10693,491.43353,514.01904,488.33984Q513.06714,485.65414,510.92535,483.37628Q509.05548,481.40448,506.33575,480.38464Q503.5834,479.34406,500.56592,479.33084L500.56815,479.33075Q500.59616,479.33072,500.62427,479.33066L500.54752,479.33066L500.5436,479.3308Q500.15402,479.33224,499.77338,479.34708 Z M532.07007,479.3496Q526.3905,479.5713,523.1642,482.3904Q519.8325,485.28012,519.8325,489.49573Q519.8325,493.6433,522.7562,496.0571Q524.3541,497.31503,525.884,497.99496Q527.2439,498.57288,532.3774,500.23874Q533.70325,500.54468,535.30115,501.3266Q536.287,501.80252,537.37494,503.02646Q538.22485,503.97836,538.22485,505.95016Q538.22485,507.85403,536.38904,509.48584Q534.4993,511.09207,531.4716,511.2103Q531.23114,511.21967,530.9835,511.2196Q526.56396,511.2196,523.8102,509.82584Q523.7082,508.70392,523.57214,507.54807Q523.4702,506.39215,523.4022,505.91617Q523.36816,505.47418,523.36816,505.37222Q523.1642,504.5563,522.34827,504.5563L519.8325,504.5563L519.8325,513.73535Q525.442,515.6052,531.2555,515.6053Q531.6193,515.6052,531.9753,515.5913Q537.075,515.39233,540.5707,512.34155Q544.0044,509.3499,544.00433,504.28436Q544.00433,500.37466,541.14856,498.1309Q539.4487,496.77106,538.22485,496.32907L534.85913,495.07117Q534.21326,494.83322,532.6494,494.35727Q531.1195,493.91528,530.54156,493.74533Q527.9238,492.9294,526.5299,491.33157Q525.68,490.4816,525.68,488.6798Q525.68,486.94595,527.5498,485.48413Q529.41724,484.0282,531.99176,483.92767Q532.1826,483.9203,532.3774,483.92023L532.44543,483.92023Q534.4512,483.92023,537.8509,484.7022Q537.9529,485.92606,538.08887,487.11594Q538.19086,488.27182,538.25885,488.74774Q538.29285,489.22375,538.29285,489.29172Q538.4968,490.27762,539.4828,490.27762L542.1685,490.27762L542.16846,483.64825L542.16846,481.23447Q536.60535,479.34644,533.04846,479.33075L533.051,479.33066Q533.05414,479.33066,533.0574,479.33066L533.05005,479.33066L533.05,479.33066Q532.5513,479.3308,532.07007,479.3496 Z M546.4181,479.90857L546.4181,482.83237Q546.4181,483.95422,547.50604,484.1582Q548.186,484.3962,551.4157,484.97412L551.4157,502.38043Q551.4157,508.29593,554.47546,512.0696Q557.6032,515.7413,563.24664,515.7412Q563.55804,515.7412,563.8658,515.72925Q570.2077,515.4817,574.9416,510.13177L575.4515,513.87146Q575.8595,515.19727,577.1174,515.19727L585.8206,515.19727L585.8206,512.20557Q585.8206,511.15164,584.76666,510.9477Q584.1548,510.74368,580.78906,510.13184L580.78906,479.90857L574.60156,479.90863L569.604,479.90857L569.604,482.90033Q569.604,484.0222,570.62396,484.2262Q573.9897,484.83813,574.60156,485.0421L574.60156,505.95016Q570.4294,510.6113,565.507,510.8034Q565.29553,510.81168,565.08246,510.81168L565.0825,510.74374Q561.3768,510.74374,559.507,508.56793Q557.6712,506.4261,557.6712,502.31253L557.67114,479.90857L546.4181,479.90857 Z M590.00226,479.90863L590.00226,482.8323Q590.00226,483.95422,590.95416,484.15817Q591.49805,484.32812,594.99976,484.97412L594.99976,510.13174L590.95416,510.8797Q590.00226,511.0837,590.00226,512.20557L590.00226,515.12933L606.2188,515.1293L606.21875,512.2055Q606.2188,511.08368,605.16486,510.87967Q604.9609,510.87967,603.091,510.4717L601.1872,510.13174L601.18713,488.95172Q604.62665,484.52963,608.76044,484.36832Q608.917,484.36215,609.07446,484.36212Q615.73785,484.36215,615.73785,492.72537L615.7378,515.19727L626.9569,515.19727L626.9569,512.20557Q626.9569,511.15164,625.90295,510.94763Q624.91705,510.77768,623.9991,510.57367Q623.1152,510.40372,622.6052,510.2677Q622.0953,510.16577,621.9592,510.13174L621.9592,492.7254Q621.9592,488.7137,624.23706,486.43594Q626.18756,484.48553,629.16046,484.36945Q629.34845,484.36212,629.5407,484.36212Q632.9063,484.36215,634.8441,486.50397Q636.646,488.50977,636.646,492.79333L636.646,515.2652L647.8649,515.26526L647.8649,512.2055Q647.8649,511.15158,646.8111,510.9477Q646.2671,510.77762,642.76544,510.13174L642.76544,492.72537Q642.76544,486.33395,639.7057,482.83228Q638.17584,481.06442,635.93207,480.2485Q633.4503,479.3306,630.5265,479.3306Q630.33563,479.33066,630.14386,479.33813Q627.333,479.4478,624.37305,481.16647Q621.27936,482.9683,619.7835,486.70798Q618.76355,483.34225,616.5878,481.37045Q614.344,479.3306,610.74036,479.3306Q610.527,479.3306,610.3152,479.33887Q605.0603,479.54398,600.77924,484.8381L600.77924,484.7701L600.3033,481.1665Q599.8953,479.90857,598.63745,479.90857L594.99976,479.90857L590.00226,479.90863 Z M666.6643,479.347Q663.3068,479.47806,660.64777,480.65652Q657.5201,482.05035,655.4123,484.36212Q653.4405,486.53796,652.1486,489.93762Q650.9587,493.09927,650.9587,496.73697Q650.9587,501.2925,652.2167,504.8282Q653.5085,508.49988,655.68427,510.74365Q658.0641,513.22546,661.0558,514.44934Q664.0475,515.6732,667.8212,515.67316Q668.1693,515.6732,668.5345,515.659Q669.95276,515.60364,671.6288,515.3332Q673.0907,515.0952,675.4025,514.3473Q676.5585,513.9734,678.8023,512.6135Q680.604,511.52557,681.5901,510.2677L679.85614,507.95593Q679.4482,507.34402,678.66626,507.34402Q678.6471,507.34396,678.6274,507.34476Q678.12305,507.36444,677.27246,507.88794Q676.3885,508.43185,675.19855,509.00983Q673.46466,509.82574,672.27484,510.19977Q671.0069,510.58557,669.1356,510.65863Q668.6988,510.67566,668.2291,510.67566Q665.95135,510.67572,663.77545,509.82578Q661.7697,509.04385,660.2738,507.34402Q658.642,505.47418,657.92804,503.2984Q657.0782,500.68066,657.0781,497.45102L657.0819,497.45087L680.4681,497.45093Q680.5256,497.45093,680.58093,497.44873Q681.37634,497.4177,681.72595,496.94092Q681.998,496.56696,681.998,495.0031Q681.99786,491.43344,680.91003,488.33975Q679.9581,485.65402,677.8163,483.37625Q675.9465,481.4044,673.2267,480.38455Q670.4785,479.34552,667.4659,479.3308L667.46985,479.3306Q667.4925,479.3306,667.5152,479.33057L667.4584,479.3306L667.4563,479.33072Q667.05554,479.33176,666.6643,479.347 Z"/>
</g>
</g>
<g style="fill:rgb(212,235,255); fill-opacity:0.5137255; stroke-linejoin: miter">
<path d="M187.11351,310.82834L261.312,310.82877L335.5105,310.8292Q335.5105,397.7854,335.5105,484.7416Q261.31204,484.74203,187.11353,484.74246Q187.11351,397.78543,187.11351,310.82834"/>
</g>
<g>
<g style="fill:rgb(135,149,162); fill-opacity:1.0; stroke-linejoin: miter">
<path d="M261.3144,402.44357C282.419,402.44107,290.01382,381.31143,292.00165,363.95203C294.45093,342.56772,284.3392,326.47382,261.3144,326.47382C238.29434,326.47382,228.17786,342.5668,230.62712,363.95203C232.61736,381.30948,240.2086,402.44586,261.3144,402.44357 Z"/>
</g>
<g style="fill:rgb(135,149,162); fill-opacity:1.0; stroke-linejoin: miter">
<path d="M318.40564,452.76212C318.17468,446.02655,317.3853,439.2601,316.21,432.6291C314.786,424.59637,312.9733,412.8197,305.9601,407.58627C301.90417,404.55933,296.65192,403.56653,292.00873,401.74118C289.74902,400.85342,287.72473,399.97134,285.82446,398.9675C279.41183,405.9999,271.04968,409.67886,261.31085,409.6794C251.57559,409.6794,243.21439,406.0004,236.80151,398.9675C234.90146,399.97177,232.87694,400.85342,230.61719,401.74118C225.97398,403.56653,220.72174,404.55933,216.66655,407.58627C209.65288,412.82117,207.84036,424.59723,206.41638,432.6291C205.24086,439.2601,204.45125,446.02655,204.22055,452.76212C204.04214,457.97964,206.61824,458.71075,210.98291,460.28613C216.44838,462.2572,222.0913,463.72003,227.77184,464.91974C238.74274,467.23615,250.05127,469.01743,261.31134,469.09695C272.57162,469.017,283.8804,467.23615,294.85126,464.91974C300.53152,463.72092,306.1747,462.2572,311.6397,460.28613C316.0063,458.71118,318.5819,457.97964,318.40344,452.76212 Z"/>
</g>
</g>
<g style="fill:rgb(212,235,255); fill-opacity:0.99607843; stroke-linejoin: miter">
<path d="M702.2943,811.14575L760.9898,811.14624L819.6855,811.1467Q819.6855,828.90265,819.6855,846.6585Q760.9898,846.65906,702.2943,846.65955Q702.2943,828.90265,702.2943,811.14575"/>
</g>
</g>
</svg>