<svg width="87" height="23" viewBox="0 0 87 23" fill="none" xmlns="http://www.w3.org/2000/svg">
<path d="M8.16797 14.4961C8.16797 14.082 7.96094 13.7578 7.54688 13.5234C7.14062 13.2812 6.48438 13.0664 5.57812 12.8789C2.5625 12.2461 1.05469 10.9648 1.05469 9.03516C1.05469 7.91016 1.51953 6.97266 2.44922 6.22266C3.38672 5.46484 4.60938 5.08594 6.11719 5.08594C7.72656 5.08594 9.01172 5.46484 9.97266 6.22266C10.9414 6.98047 11.4258 7.96484 11.4258 9.17578H8.03906C8.03906 8.69141 7.88281 8.29297 7.57031 7.98047C7.25781 7.66016 6.76953 7.5 6.10547 7.5C5.53516 7.5 5.09375 7.62891 4.78125 7.88672C4.46875 8.14453 4.3125 8.47266 4.3125 8.87109C4.3125 9.24609 4.48828 9.55078 4.83984 9.78516C5.19922 10.0117 5.80078 10.2109 6.64453 10.3828C7.48828 10.5469 8.19922 10.7344 8.77734 10.9453C10.5664 11.6016 11.4609 12.7383 11.4609 14.3555C11.4609 15.5117 10.9648 16.4492 9.97266 17.168C8.98047 17.8789 7.69922 18.2344 6.12891 18.2344C5.06641 18.2344 4.12109 18.0469 3.29297 17.6719C2.47266 17.2891 1.82812 16.7695 1.35938 16.1133C0.890625 15.4492 0.65625 14.7344 0.65625 13.9688H3.86719C3.89844 14.5703 4.12109 15.0312 4.53516 15.3516C4.94922 15.6719 5.50391 15.832 6.19922 15.832C6.84766 15.832 7.33594 15.7109 7.66406 15.4688C8 15.2188 8.16797 14.8945 8.16797 14.4961ZM21 18C20.8438 17.6953 20.7305 17.3164 20.6602 16.8633C19.8398 17.7773 18.7734 18.2344 17.4609 18.2344C16.2188 18.2344 15.1875 17.875 14.3672 17.1562C13.5547 16.4375 13.1484 15.5312 13.1484 14.4375C13.1484 13.0938 13.6445 12.0625 14.6367 11.3438C15.6367 10.625 17.0781 10.2617 18.9609 10.2539H20.5195V9.52734C20.5195 8.94141 20.3672 8.47266 20.0625 8.12109C19.7656 7.76953 19.293 7.59375 18.6445 7.59375C18.0742 7.59375 17.625 7.73047 17.2969 8.00391C16.9766 8.27734 16.8164 8.65234 16.8164 9.12891H13.4297C13.4297 8.39453 13.6562 7.71484 14.1094 7.08984C14.5625 6.46484 15.2031 5.97656 16.0312 5.625C16.8594 5.26562 17.7891 5.08594 18.8203 5.08594C20.3828 5.08594 21.6211 5.48047 22.5352 6.26953C23.457 7.05078 23.918 8.15234 23.918 9.57422V15.0703C23.9258 16.2734 24.0938 17.1836 24.4219 17.8008V18H21ZM18.1992 15.6445C18.6992 15.6445 19.1602 15.5352 19.582 15.3164C20.0039 15.0898 20.3164 14.7891 20.5195 14.4141V12.2344H19.2539C17.5586 12.2344 16.6562 12.8203 16.5469 13.9922L16.5352 14.1914C16.5352 14.6133 16.6836 14.9609 16.9805 15.2344C17.2773 15.5078 17.6836 15.6445 18.1992 15.6445ZM26.0273 11.5664C26.0273 9.62109 26.4883 8.05469 27.4102 6.86719C28.3398 5.67969 29.5898 5.08594 31.1602 5.08594C32.5508 5.08594 33.6328 5.5625 34.4062 6.51562L34.5469 5.32031H37.6172V17.5781C37.6172 18.6875 37.3633 19.6523 36.8555 20.4727C36.3555 21.293 35.6484 21.918 34.7344 22.3477C33.8203 22.7773 32.75 22.9922 31.5234 22.9922C30.5938 22.9922 29.6875 22.8047 28.8047 22.4297C27.9219 22.0625 27.2539 21.5859 26.8008 21L28.3008 18.9375C29.1445 19.8828 30.168 20.3555 31.3711 20.3555C32.2695 20.3555 32.9688 20.1133 33.4688 19.6289C33.9688 19.1523 34.2188 18.4727 34.2188 17.5898V16.9102C33.4375 17.793 32.4102 18.2344 31.1367 18.2344C29.6133 18.2344 28.3789 17.6406 27.4336 16.4531C26.4961 15.2578 26.0273 13.6758 26.0273 11.707V11.5664ZM29.4141 11.8125C29.4141 12.9609 29.6445 13.8633 30.1055 14.5195C30.5664 15.168 31.1992 15.4922 32.0039 15.4922C33.0352 15.4922 33.7734 15.1055 34.2188 14.332V9C33.7656 8.22656 33.0352 7.83984 32.0273 7.83984C31.2148 7.83984 30.5742 8.17188 30.1055 8.83594C29.6445 9.5 29.4141 10.4922 29.4141 11.8125ZM46.0664 18.2344C44.207 18.2344 42.6914 17.6641 41.5195 16.5234C40.3555 15.3828 39.7734 13.8633 39.7734 11.9648V11.6367C39.7734 10.3633 40.0195 9.22656 40.5117 8.22656C41.0039 7.21875 41.6992 6.44531 42.5977 5.90625C43.5039 5.35938 44.5352 5.08594 45.6914 5.08594C47.4258 5.08594 48.7891 5.63281 49.7812 6.72656C50.7812 7.82031 51.2812 9.37109 51.2812 11.3789V12.7617H43.207C43.3164 13.5898 43.6445 14.2539 44.1914 14.7539C44.7461 15.2539 45.4453 15.5039 46.2891 15.5039C47.5938 15.5039 48.6133 15.0312 49.3477 14.0859L51.0117 15.9492C50.5039 16.668 49.8164 17.2305 48.9492 17.6367C48.082 18.0352 47.1211 18.2344 46.0664 18.2344ZM45.6797 7.82812C45.0078 7.82812 44.4609 8.05469 44.0391 8.50781C43.625 8.96094 43.3594 9.60938 43.2422 10.4531H47.9531V10.1836C47.9375 9.43359 47.7344 8.85547 47.3438 8.44922C46.9531 8.03516 46.3984 7.82812 45.6797 7.82812Z" fill="#65AFFF"/>
<path d="M63.0703 14.4844H56.9062L55.7344 18H51.9961L58.3477 0.9375H61.6055L67.9922 18H64.2539L63.0703 14.4844ZM57.8555 11.6367H62.1211L59.9766 5.25L57.8555 11.6367ZM68.8359 11.5664C68.8359 9.58984 69.2773 8.01562 70.1602 6.84375C71.0508 5.67188 72.2656 5.08594 73.8047 5.08594C75.0391 5.08594 76.0586 5.54688 76.8633 6.46875V0H80.2617V18H77.2031L77.0391 16.6523C76.1953 17.707 75.1094 18.2344 73.7812 18.2344C72.2891 18.2344 71.0898 17.6484 70.1836 16.4766C69.2852 15.2969 68.8359 13.6602 68.8359 11.5664ZM72.2227 11.8125C72.2227 13 72.4297 13.9102 72.8438 14.543C73.2578 15.1758 73.8594 15.4922 74.6484 15.4922C75.6953 15.4922 76.4336 15.0508 76.8633 14.168V9.16406C76.4414 8.28125 75.7109 7.83984 74.6719 7.83984C73.0391 7.83984 72.2227 9.16406 72.2227 11.8125ZM86.4609 18H83.0625V5.32031H86.4609V18ZM82.8633 2.03906C82.8633 1.53125 83.0312 1.11328 83.3672 0.785156C83.7109 0.457031 84.1758 0.292969 84.7617 0.292969C85.3398 0.292969 85.8008 0.457031 86.1445 0.785156C86.4883 1.11328 86.6602 1.53125 86.6602 2.03906C86.6602 2.55469 86.4844 2.97656 86.1328 3.30469C85.7891 3.63281 85.332 3.79688 84.7617 3.79688C84.1914 3.79688 83.7305 3.63281 83.3789 3.30469C83.0352 2.97656 82.8633 2.55469 82.8633 2.03906Z" fill="#C7F0BD"/>
</svg>
